<mxfile host="app.diagrams.net" agent="Mozilla/5.0 (Windows NT 10.0; Win64; x64) AppleWebKit/537.36 (KHTML, like Gecko) Chrome/131.0.0.0 Safari/537.36" version="26.0.6">
  <diagram name="Page-1" id="WaFTsAYHofzjpq_HBNXK">
    <mxGraphModel dx="1434" dy="738" grid="1" gridSize="10" guides="1" tooltips="1" connect="1" arrows="1" fold="1" page="1" pageScale="1" pageWidth="827" pageHeight="1169" math="0" shadow="0">
      <root>
        <mxCell id="0" />
        <mxCell id="1" parent="0" />
        <mxCell id="JGBzeXOtltJl-Eu3u6mC-1" value="" style="rounded=0;whiteSpace=wrap;html=1;" vertex="1" parent="1">
          <mxGeometry x="170" y="40" width="540" height="670" as="geometry" />
        </mxCell>
        <mxCell id="JGBzeXOtltJl-Eu3u6mC-2" value="" style="rounded=1;whiteSpace=wrap;html=1;" vertex="1" parent="1">
          <mxGeometry x="315" y="180" width="120" height="60" as="geometry" />
        </mxCell>
        <mxCell id="JGBzeXOtltJl-Eu3u6mC-3" value="" style="rounded=1;whiteSpace=wrap;html=1;" vertex="1" parent="1">
          <mxGeometry x="185" y="180" width="120" height="60" as="geometry" />
        </mxCell>
        <mxCell id="JGBzeXOtltJl-Eu3u6mC-4" value="" style="rounded=1;whiteSpace=wrap;html=1;" vertex="1" parent="1">
          <mxGeometry x="445" y="180" width="120" height="60" as="geometry" />
        </mxCell>
        <mxCell id="JGBzeXOtltJl-Eu3u6mC-5" value="" style="rounded=1;whiteSpace=wrap;html=1;" vertex="1" parent="1">
          <mxGeometry x="575" y="180" width="120" height="60" as="geometry" />
        </mxCell>
        <mxCell id="JGBzeXOtltJl-Eu3u6mC-6" value="" style="rounded=1;whiteSpace=wrap;html=1;" vertex="1" parent="1">
          <mxGeometry x="315" y="260" width="120" height="60" as="geometry" />
        </mxCell>
        <mxCell id="JGBzeXOtltJl-Eu3u6mC-7" value="" style="rounded=1;whiteSpace=wrap;html=1;" vertex="1" parent="1">
          <mxGeometry x="185" y="260" width="120" height="60" as="geometry" />
        </mxCell>
        <mxCell id="JGBzeXOtltJl-Eu3u6mC-8" value="" style="rounded=1;whiteSpace=wrap;html=1;" vertex="1" parent="1">
          <mxGeometry x="445" y="260" width="120" height="60" as="geometry" />
        </mxCell>
        <mxCell id="JGBzeXOtltJl-Eu3u6mC-9" value="" style="rounded=1;whiteSpace=wrap;html=1;" vertex="1" parent="1">
          <mxGeometry x="575" y="260" width="120" height="60" as="geometry" />
        </mxCell>
        <mxCell id="JGBzeXOtltJl-Eu3u6mC-10" value="" style="rounded=1;whiteSpace=wrap;html=1;" vertex="1" parent="1">
          <mxGeometry x="315" y="340" width="120" height="60" as="geometry" />
        </mxCell>
        <mxCell id="JGBzeXOtltJl-Eu3u6mC-11" value="" style="rounded=1;whiteSpace=wrap;html=1;" vertex="1" parent="1">
          <mxGeometry x="185" y="340" width="120" height="60" as="geometry" />
        </mxCell>
        <mxCell id="JGBzeXOtltJl-Eu3u6mC-12" value="" style="rounded=1;whiteSpace=wrap;html=1;" vertex="1" parent="1">
          <mxGeometry x="445" y="340" width="120" height="60" as="geometry" />
        </mxCell>
        <mxCell id="JGBzeXOtltJl-Eu3u6mC-13" value="" style="rounded=1;whiteSpace=wrap;html=1;" vertex="1" parent="1">
          <mxGeometry x="575" y="340" width="120" height="60" as="geometry" />
        </mxCell>
        <mxCell id="JGBzeXOtltJl-Eu3u6mC-14" value="" style="rounded=1;whiteSpace=wrap;html=1;" vertex="1" parent="1">
          <mxGeometry x="315" y="420" width="120" height="60" as="geometry" />
        </mxCell>
        <mxCell id="JGBzeXOtltJl-Eu3u6mC-15" value="" style="rounded=1;whiteSpace=wrap;html=1;" vertex="1" parent="1">
          <mxGeometry x="185" y="420" width="120" height="60" as="geometry" />
        </mxCell>
        <mxCell id="JGBzeXOtltJl-Eu3u6mC-16" value="" style="rounded=1;whiteSpace=wrap;html=1;" vertex="1" parent="1">
          <mxGeometry x="445" y="420" width="120" height="60" as="geometry" />
        </mxCell>
        <mxCell id="JGBzeXOtltJl-Eu3u6mC-17" value="" style="rounded=1;whiteSpace=wrap;html=1;" vertex="1" parent="1">
          <mxGeometry x="575" y="420" width="120" height="60" as="geometry" />
        </mxCell>
        <mxCell id="JGBzeXOtltJl-Eu3u6mC-18" value="Project Card Game" style="ellipse;whiteSpace=wrap;html=1;" vertex="1" parent="1">
          <mxGeometry x="380" y="50" width="120" height="80" as="geometry" />
        </mxCell>
        <mxCell id="JGBzeXOtltJl-Eu3u6mC-20" value="Restart" style="rounded=1;whiteSpace=wrap;html=1;" vertex="1" parent="1">
          <mxGeometry x="410" y="530" width="60" height="30" as="geometry" />
        </mxCell>
        <mxCell id="JGBzeXOtltJl-Eu3u6mC-21" value="Count Counter" style="rounded=1;whiteSpace=wrap;html=1;" vertex="1" parent="1">
          <mxGeometry x="380" y="600" width="120" height="60" as="geometry" />
        </mxCell>
        <mxCell id="JGBzeXOtltJl-Eu3u6mC-22" value="You Won! in count moves" style="rounded=1;whiteSpace=wrap;html=1;" vertex="1" parent="1">
          <mxGeometry x="240" y="210" width="400" height="240" as="geometry" />
        </mxCell>
        <mxCell id="JGBzeXOtltJl-Eu3u6mC-23" value="Play Again" style="ellipse;whiteSpace=wrap;html=1;" vertex="1" parent="1">
          <mxGeometry x="385" y="360" width="110" height="40" as="geometry" />
        </mxCell>
      </root>
    </mxGraphModel>
  </diagram>
</mxfile>
